<svg xmlns="http://www.w3.org/2000/svg" viewBox="0 0 60 30"><clipPath id="auCanton"><rect width="30" height="15"></rect></clipPath><rect width="60" height="30" fill="#012169"></rect><g clip-path="url(#auCanton)"><g transform="scale(0.5)">
  <clipPath id="ujcau"><path d="M30,15 h30 v15 z v15 h-30 z h-30 v-15 z v-15 h30 z"></path></clipPath>
  <rect width="60" height="30" fill="#012169"></rect>
  <path d="M0,0 L60,30 M60,0 L0,30" stroke="#fff" stroke-width="6"></path>
  <path d="M0,0 L60,30 M60,0 L0,30" clip-path="url(#ujcau)" stroke="#C8102E" stroke-width="4"></path>
  <path d="M30,0 v30 M0,15 h60" stroke="#fff" stroke-width="10"></path>
  <path d="M30,0 v30 M0,15 h60" stroke="#C8102E" stroke-width="6"></path></g></g><polygon points="15.00,17.30 15.95,20.52 19.07,19.26 17.14,22.01 20.07,23.66 16.72,23.87 17.26,27.19 15.00,24.70 12.74,27.19 13.28,23.87 9.93,23.66 12.86,22.01 10.93,19.26 14.05,20.52" fill="#fff"></polygon><polygon points="46.00,3.80 46.50,5.46 48.11,4.82 47.12,6.24 48.63,7.10 46.90,7.22 47.17,8.93 46.00,7.65 44.83,8.93 45.10,7.22 43.37,7.10 44.88,6.24 43.89,4.82 45.50,5.46" fill="#fff"></polygon><polygon points="38.00,11.80 38.50,13.46 40.11,12.82 39.12,14.24 40.63,15.10 38.90,15.22 39.17,16.93 38.00,15.65 36.83,16.93 37.10,15.22 35.37,15.10 36.88,14.24 35.89,12.82 37.50,13.46" fill="#fff"></polygon><polygon points="54.00,9.80 54.50,11.46 56.11,10.82 55.12,12.24 56.63,13.10 54.90,13.22 55.17,14.93 54.00,13.65 52.83,14.93 53.10,13.22 51.37,13.10 52.88,12.24 51.89,10.82 53.50,11.46" fill="#fff"></polygon><polygon points="46.00,21.80 46.50,23.46 48.11,22.82 47.12,24.24 48.63,25.10 46.90,25.22 47.17,26.93 46.00,25.65 44.83,26.93 45.10,25.22 43.37,25.10 44.88,24.24 43.89,22.82 45.50,23.46" fill="#fff"></polygon><polygon points="49.50,16.50 49.88,17.47 50.93,17.54 50.12,18.20 50.38,19.21 49.50,18.65 48.62,19.21 48.88,18.20 48.07,17.54 49.12,17.47" fill="#fff"></polygon></svg>