<svg xmlns="http://www.w3.org/2000/svg" viewBox="0 0 900 600" width="900" height="600">
<rect width="900" height="600" fill="#DE2910"></rect><g fill="#FFDE00"><polygon points="150.00,65.00 172.34,129.26 240.35,130.64 186.14,171.74 205.84,236.86 150.00,198.00 94.16,236.86 113.86,171.74 59.65,130.64 127.66,129.26"></polygon><polygon points="272.56,86.46 287.05,68.86 275.86,48.99 297.08,57.33 312.52,40.55 311.15,63.31 331.88,72.81 309.81,78.53 307.18,101.18 294.91,81.96"></polygon><polygon points="333.21,138.70 353.67,128.62 351.66,105.91 367.56,122.26 388.54,113.33 377.91,133.50 392.89,150.69 370.42,146.82 358.69,166.37 355.44,143.80"></polygon><polygon points="334.37,215.74 357.14,214.64 364.34,193.01 372.42,214.33 395.22,214.49 377.44,228.76 384.34,250.50 365.27,238.00 346.73,251.27 352.72,229.27"></polygon><polygon points="275.82,269.04 297.06,277.34 312.46,260.53 311.13,283.29 331.88,292.74 309.82,298.51 307.25,321.17 294.94,301.97 272.60,306.52 287.05,288.89"></polygon></g>
</svg>