<svg xmlns="http://www.w3.org/2000/svg" viewBox="0 0 900 600" width="900" height="600">
<rect width="900" height="600" fill="#fff"></rect><rect width="900" height="200" fill="#FF9933"></rect><rect y="400" width="900" height="200" fill="#138808"></rect><circle cx="450" cy="300" r="74" fill="none" stroke="#000080" stroke-width="8"></circle><line x1="468.0" y1="300.0" x2="522.0" y2="300.0" stroke="#000080" stroke-width="4"></line><line x1="467.4" y1="304.7" x2="519.5" y2="318.6" stroke="#000080" stroke-width="4"></line><line x1="465.6" y1="309.0" x2="512.4" y2="336.0" stroke="#000080" stroke-width="4"></line><line x1="462.7" y1="312.7" x2="500.9" y2="350.9" stroke="#000080" stroke-width="4"></line><line x1="459.0" y1="315.6" x2="486.0" y2="362.4" stroke="#000080" stroke-width="4"></line><line x1="454.7" y1="317.4" x2="468.6" y2="369.5" stroke="#000080" stroke-width="4"></line><line x1="450.0" y1="318.0" x2="450.0" y2="372.0" stroke="#000080" stroke-width="4"></line><line x1="445.3" y1="317.4" x2="431.4" y2="369.5" stroke="#000080" stroke-width="4"></line><line x1="441.0" y1="315.6" x2="414.0" y2="362.4" stroke="#000080" stroke-width="4"></line><line x1="437.3" y1="312.7" x2="399.1" y2="350.9" stroke="#000080" stroke-width="4"></line><line x1="434.4" y1="309.0" x2="387.6" y2="336.0" stroke="#000080" stroke-width="4"></line><line x1="432.6" y1="304.7" x2="380.5" y2="318.6" stroke="#000080" stroke-width="4"></line><line x1="432.0" y1="300.0" x2="378.0" y2="300.0" stroke="#000080" stroke-width="4"></line><line x1="432.6" y1="295.3" x2="380.5" y2="281.4" stroke="#000080" stroke-width="4"></line><line x1="434.4" y1="291.0" x2="387.6" y2="264.0" stroke="#000080" stroke-width="4"></line><line x1="437.3" y1="287.3" x2="399.1" y2="249.1" stroke="#000080" stroke-width="4"></line><line x1="441.0" y1="284.4" x2="414.0" y2="237.6" stroke="#000080" stroke-width="4"></line><line x1="445.3" y1="282.6" x2="431.4" y2="230.5" stroke="#000080" stroke-width="4"></line><line x1="450.0" y1="282.0" x2="450.0" y2="228.0" stroke="#000080" stroke-width="4"></line><line x1="454.7" y1="282.6" x2="468.6" y2="230.5" stroke="#000080" stroke-width="4"></line><line x1="459.0" y1="284.4" x2="486.0" y2="237.6" stroke="#000080" stroke-width="4"></line><line x1="462.7" y1="287.3" x2="500.9" y2="249.1" stroke="#000080" stroke-width="4"></line><line x1="465.6" y1="291.0" x2="512.4" y2="264.0" stroke="#000080" stroke-width="4"></line><line x1="467.4" y1="295.3" x2="519.5" y2="281.4" stroke="#000080" stroke-width="4"></line><circle cx="450" cy="300" r="16" fill="#000080"></circle>
</svg>