<svg xmlns="http://www.w3.org/2000/svg" viewBox="0 0 900 600" width="900" height="600">
<rect y="0.00" width="900" height="42.86" fill="#CC0001"></rect><rect y="42.86" width="900" height="42.86" fill="#fff"></rect><rect y="85.71" width="900" height="42.86" fill="#CC0001"></rect><rect y="128.57" width="900" height="42.86" fill="#fff"></rect><rect y="171.43" width="900" height="42.86" fill="#CC0001"></rect><rect y="214.29" width="900" height="42.86" fill="#fff"></rect><rect y="257.14" width="900" height="42.86" fill="#CC0001"></rect><rect y="300.00" width="900" height="42.86" fill="#fff"></rect><rect y="342.86" width="900" height="42.86" fill="#CC0001"></rect><rect y="385.71" width="900" height="42.86" fill="#fff"></rect><rect y="428.57" width="900" height="42.86" fill="#CC0001"></rect><rect y="471.43" width="900" height="42.86" fill="#fff"></rect><rect y="514.29" width="900" height="42.86" fill="#CC0001"></rect><rect y="557.14" width="900" height="42.86" fill="#fff"></rect><rect width="450" height="342.86" fill="#010066"></rect><circle cx="235" cy="171.4" r="78" fill="#FFCC00"></circle><circle cx="279" cy="171.4" r="66" fill="#010066"></circle><g fill="#FFCC00"><polygon points="330.00,109.43 338.90,132.43 356.90,115.57 354.94,140.16 378.47,132.77 366.04,154.07 390.45,157.63 370.00,171.43 390.45,185.22 366.04,188.78 378.47,210.08 354.94,202.70 356.90,227.29 338.90,210.43 330.00,233.43 321.10,210.43 303.10,227.29 305.06,202.70 281.53,210.08 293.96,188.78 269.55,185.22 290.00,171.43 269.55,157.63 293.96,154.07 281.53,132.77 305.06,140.16 303.10,115.57 321.10,132.43"></polygon></g>
</svg>