<svg xmlns="http://www.w3.org/2000/svg" viewBox="0 0 900 600" width="900" height="600">
<rect width="900" height="300" fill="#0038A8"></rect><rect y="300" width="900" height="300" fill="#CE1126"></rect><polygon points="0,0 0,600 519,300" fill="#fff"></polygon><g fill="#FCD116"><polygon points="173.00,228.00 184.48,272.28 223.91,249.09 200.72,288.52 245.00,300.00 200.72,311.48 223.91,350.91 184.48,327.72 173.00,372.00 161.52,327.72 122.09,350.91 145.28,311.48 101.00,300.00 145.28,288.52 122.09,249.09 161.52,272.28"></polygon><polygon points="70.00,40.00 77.05,60.29 98.53,60.73 81.41,73.71 87.63,94.27 70.00,82.00 52.37,94.27 58.59,73.71 41.47,60.73 62.95,60.29"></polygon><polygon points="70.00,500.00 77.05,520.29 98.53,520.73 81.41,533.71 87.63,554.27 70.00,542.00 52.37,554.27 58.59,533.71 41.47,520.73 62.95,520.29"></polygon><polygon points="430.00,270.00 437.05,290.29 458.53,290.73 441.41,303.71 447.63,324.27 430.00,312.00 412.37,324.27 418.59,303.71 401.47,290.73 422.95,290.29"></polygon></g><circle cx="173" cy="300" r="34" fill="#FCD116"></circle>
</svg>