<svg xmlns="http://www.w3.org/2000/svg" viewBox="0 0 900 600" width="900" height="600">
<rect width="900" height="600" fill="#fff"></rect><rect width="900" height="300" fill="#ED2939"></rect><circle cx="190" cy="150" r="86" fill="#fff"></circle><circle cx="232" cy="150" r="70" fill="#ED2939"></circle><g fill="#fff"><polygon points="360.00,42.00 367.05,62.29 388.53,62.73 371.41,75.71 377.63,96.27 360.00,84.00 342.37,96.27 348.59,75.71 331.47,62.73 352.95,62.29"></polygon></g><g fill="#fff"><polygon points="434.18,95.90 441.24,116.19 462.71,116.63 445.60,129.60 451.82,150.17 434.18,137.90 416.55,150.17 422.77,129.60 405.65,116.63 427.13,116.19"></polygon></g><g fill="#fff"><polygon points="405.85,183.10 412.90,203.40 434.38,203.83 417.26,216.81 423.48,237.37 405.85,225.10 388.21,237.37 394.43,216.81 377.32,203.83 398.79,203.40"></polygon></g><g fill="#fff"><polygon points="314.15,183.10 321.21,203.40 342.68,203.83 325.57,216.81 331.79,237.37 314.15,225.10 296.52,237.37 302.74,216.81 285.62,203.83 307.10,203.40"></polygon></g><g fill="#fff"><polygon points="285.82,95.90 292.87,116.19 314.35,116.63 297.23,129.60 303.45,150.17 285.82,137.90 268.18,150.17 274.40,129.60 257.29,116.63 278.76,116.19"></polygon></g>
</svg>