<svg xmlns="http://www.w3.org/2000/svg" viewBox="0 0 900 600" width="900" height="600">
<rect width="900" height="600" fill="#FE0000"></rect><rect width="450" height="300" fill="#000095"></rect><g fill="#fff"><polygon points="225.00,35.00 239.75,94.94 282.50,50.41 265.31,109.69 324.59,92.50 280.06,135.25 340.00,150.00 280.06,164.75 324.59,207.50 265.31,190.31 282.50,249.59 239.75,205.06 225.00,265.00 210.25,205.06 167.50,249.59 184.69,190.31 125.41,207.50 169.94,164.75 110.00,150.00 169.94,135.25 125.41,92.50 184.69,109.69 167.50,50.41 210.25,94.94"></polygon></g><circle cx="225" cy="150" r="52" fill="#000095"></circle><circle cx="225" cy="150" r="40" fill="#fff"></circle>
</svg>