<svg xmlns="http://www.w3.org/2000/svg" viewBox="0 0 57 30"><rect y="0.000" width="57" height="2.308" fill="#B22234"></rect><rect y="2.308" width="57" height="2.308" fill="#fff"></rect><rect y="4.615" width="57" height="2.308" fill="#B22234"></rect><rect y="6.923" width="57" height="2.308" fill="#fff"></rect><rect y="9.231" width="57" height="2.308" fill="#B22234"></rect><rect y="11.538" width="57" height="2.308" fill="#fff"></rect><rect y="13.846" width="57" height="2.308" fill="#B22234"></rect><rect y="16.154" width="57" height="2.308" fill="#fff"></rect><rect y="18.462" width="57" height="2.308" fill="#B22234"></rect><rect y="20.769" width="57" height="2.308" fill="#fff"></rect><rect y="23.077" width="57" height="2.308" fill="#B22234"></rect><rect y="25.385" width="57" height="2.308" fill="#fff"></rect><rect y="27.692" width="57" height="2.308" fill="#B22234"></rect><rect width="22.800" height="16.154" fill="#3C3B6E"></rect><polygon points="1.90,0.84 2.09,1.36 2.64,1.37 2.20,1.71 2.36,2.25 1.90,1.94 1.44,2.25 1.60,1.71 1.16,1.37 1.71,1.36" fill="#fff"></polygon><polygon points="5.70,0.84 5.89,1.36 6.44,1.37 6.00,1.71 6.16,2.25 5.70,1.94 5.24,2.25 5.40,1.71 4.96,1.37 5.51,1.36" fill="#fff"></polygon><polygon points="9.50,0.84 9.69,1.36 10.24,1.37 9.80,1.71 9.96,2.25 9.50,1.94 9.04,2.25 9.20,1.71 8.76,1.37 9.31,1.36" fill="#fff"></polygon><polygon points="13.30,0.84 13.49,1.36 14.04,1.37 13.60,1.71 13.76,2.25 13.30,1.94 12.84,2.25 13.00,1.71 12.56,1.37 13.11,1.36" fill="#fff"></polygon><polygon points="17.10,0.84 17.29,1.36 17.84,1.37 17.40,1.71 17.56,2.25 17.10,1.94 16.64,2.25 16.80,1.71 16.36,1.37 16.91,1.36" fill="#fff"></polygon><polygon points="20.90,0.84 21.09,1.36 21.64,1.37 21.20,1.71 21.36,2.25 20.90,1.94 20.44,2.25 20.60,1.71 20.16,1.37 20.71,1.36" fill="#fff"></polygon><polygon points="3.80,2.45 3.99,2.97 4.54,2.99 4.10,3.33 4.26,3.86 3.80,3.55 3.34,3.86 3.50,3.33 3.06,2.99 3.61,2.97" fill="#fff"></polygon><polygon points="7.60,2.45 7.79,2.97 8.34,2.99 7.90,3.33 8.06,3.86 7.60,3.55 7.14,3.86 7.30,3.33 6.86,2.99 7.41,2.97" fill="#fff"></polygon><polygon points="11.40,2.45 11.59,2.97 12.14,2.99 11.70,3.33 11.86,3.86 11.40,3.55 10.94,3.86 11.10,3.33 10.66,2.99 11.21,2.97" fill="#fff"></polygon><polygon points="15.20,2.45 15.39,2.97 15.94,2.99 15.50,3.33 15.66,3.86 15.20,3.55 14.74,3.86 14.90,3.33 14.46,2.99 15.01,2.97" fill="#fff"></polygon><polygon points="19.00,2.45 19.19,2.97 19.74,2.99 19.30,3.33 19.46,3.86 19.00,3.55 18.54,3.86 18.70,3.33 18.26,2.99 18.81,2.97" fill="#fff"></polygon><polygon points="1.90,4.07 2.09,4.59 2.64,4.61 2.20,4.95 2.36,5.48 1.90,5.17 1.44,5.48 1.60,4.95 1.16,4.61 1.71,4.59" fill="#fff"></polygon><polygon points="5.70,4.07 5.89,4.59 6.44,4.61 6.00,4.95 6.16,5.48 5.70,5.17 5.24,5.48 5.40,4.95 4.96,4.61 5.51,4.59" fill="#fff"></polygon><polygon points="9.50,4.07 9.69,4.59 10.24,4.61 9.80,4.95 9.96,5.48 9.50,5.17 9.04,5.48 9.20,4.95 8.76,4.61 9.31,4.59" fill="#fff"></polygon><polygon points="13.30,4.07 13.49,4.59 14.04,4.61 13.60,4.95 13.76,5.48 13.30,5.17 12.84,5.48 13.00,4.95 12.56,4.61 13.11,4.59" fill="#fff"></polygon><polygon points="17.10,4.07 17.29,4.59 17.84,4.61 17.40,4.95 17.56,5.48 17.10,5.17 16.64,5.48 16.80,4.95 16.36,4.61 16.91,4.59" fill="#fff"></polygon><polygon points="20.90,4.07 21.09,4.59 21.64,4.61 21.20,4.95 21.36,5.48 20.90,5.17 20.44,5.48 20.60,4.95 20.16,4.61 20.71,4.59" fill="#fff"></polygon><polygon points="3.80,5.68 3.99,6.20 4.54,6.22 4.10,6.56 4.26,7.09 3.80,6.78 3.34,7.09 3.50,6.56 3.06,6.22 3.61,6.20" fill="#fff"></polygon><polygon points="7.60,5.68 7.79,6.20 8.34,6.22 7.90,6.56 8.06,7.09 7.60,6.78 7.14,7.09 7.30,6.56 6.86,6.22 7.41,6.20" fill="#fff"></polygon><polygon points="11.40,5.68 11.59,6.20 12.14,6.22 11.70,6.56 11.86,7.09 11.40,6.78 10.94,7.09 11.10,6.56 10.66,6.22 11.21,6.20" fill="#fff"></polygon><polygon points="15.20,5.68 15.39,6.20 15.94,6.22 15.50,6.56 15.66,7.09 15.20,6.78 14.74,7.09 14.90,6.56 14.46,6.22 15.01,6.20" fill="#fff"></polygon><polygon points="19.00,5.68 19.19,6.20 19.74,6.22 19.30,6.56 19.46,7.09 19.00,6.78 18.54,7.09 18.70,6.56 18.26,6.22 18.81,6.20" fill="#fff"></polygon><polygon points="1.90,7.30 2.09,7.82 2.64,7.84 2.20,8.18 2.36,8.71 1.90,8.40 1.44,8.71 1.60,8.18 1.16,7.84 1.71,7.82" fill="#fff"></polygon><polygon points="5.70,7.30 5.89,7.82 6.44,7.84 6.00,8.18 6.16,8.71 5.70,8.40 5.24,8.71 5.40,8.18 4.96,7.84 5.51,7.82" fill="#fff"></polygon><polygon points="9.50,7.30 9.69,7.82 10.24,7.84 9.80,8.18 9.96,8.71 9.50,8.40 9.04,8.71 9.20,8.18 8.76,7.84 9.31,7.82" fill="#fff"></polygon><polygon points="13.30,7.30 13.49,7.82 14.04,7.84 13.60,8.18 13.76,8.71 13.30,8.40 12.84,8.71 13.00,8.18 12.56,7.84 13.11,7.82" fill="#fff"></polygon><polygon points="17.10,7.30 17.29,7.82 17.84,7.84 17.40,8.18 17.56,8.71 17.10,8.40 16.64,8.71 16.80,8.18 16.36,7.84 16.91,7.82" fill="#fff"></polygon><polygon points="20.90,7.30 21.09,7.82 21.64,7.84 21.20,8.18 21.36,8.71 20.90,8.40 20.44,8.71 20.60,8.18 20.16,7.84 20.71,7.82" fill="#fff"></polygon><polygon points="3.80,8.91 3.99,9.43 4.54,9.45 4.10,9.79 4.26,10.32 3.80,10.01 3.34,10.32 3.50,9.79 3.06,9.45 3.61,9.43" fill="#fff"></polygon><polygon points="7.60,8.91 7.79,9.43 8.34,9.45 7.90,9.79 8.06,10.32 7.60,10.01 7.14,10.32 7.30,9.79 6.86,9.45 7.41,9.43" fill="#fff"></polygon><polygon points="11.40,8.91 11.59,9.43 12.14,9.45 11.70,9.79 11.86,10.32 11.40,10.01 10.94,10.32 11.10,9.79 10.66,9.45 11.21,9.43" fill="#fff"></polygon><polygon points="15.20,8.91 15.39,9.43 15.94,9.45 15.50,9.79 15.66,10.32 15.20,10.01 14.74,10.32 14.90,9.79 14.46,9.45 15.01,9.43" fill="#fff"></polygon><polygon points="19.00,8.91 19.19,9.43 19.74,9.45 19.30,9.79 19.46,10.32 19.00,10.01 18.54,10.32 18.70,9.79 18.26,9.45 18.81,9.43" fill="#fff"></polygon><polygon points="1.90,10.53 2.09,11.05 2.64,11.07 2.20,11.41 2.36,11.94 1.90,11.63 1.44,11.94 1.60,11.41 1.16,11.07 1.71,11.05" fill="#fff"></polygon><polygon points="5.70,10.53 5.89,11.05 6.44,11.07 6.00,11.41 6.16,11.94 5.70,11.63 5.24,11.94 5.40,11.41 4.96,11.07 5.51,11.05" fill="#fff"></polygon><polygon points="9.50,10.53 9.69,11.05 10.24,11.07 9.80,11.41 9.96,11.94 9.50,11.63 9.04,11.94 9.20,11.41 8.76,11.07 9.31,11.05" fill="#fff"></polygon><polygon points="13.30,10.53 13.49,11.05 14.04,11.07 13.60,11.41 13.76,11.94 13.30,11.63 12.84,11.94 13.00,11.41 12.56,11.07 13.11,11.05" fill="#fff"></polygon><polygon points="17.10,10.53 17.29,11.05 17.84,11.07 17.40,11.41 17.56,11.94 17.10,11.63 16.64,11.94 16.80,11.41 16.36,11.07 16.91,11.05" fill="#fff"></polygon><polygon points="20.90,10.53 21.09,11.05 21.64,11.07 21.20,11.41 21.36,11.94 20.90,11.63 20.44,11.94 20.60,11.41 20.16,11.07 20.71,11.05" fill="#fff"></polygon><polygon points="3.80,12.14 3.99,12.66 4.54,12.68 4.10,13.02 4.26,13.55 3.80,13.24 3.34,13.55 3.50,13.02 3.06,12.68 3.61,12.66" fill="#fff"></polygon><polygon points="7.60,12.14 7.79,12.66 8.34,12.68 7.90,13.02 8.06,13.55 7.60,13.24 7.14,13.55 7.30,13.02 6.86,12.68 7.41,12.66" fill="#fff"></polygon><polygon points="11.40,12.14 11.59,12.66 12.14,12.68 11.70,13.02 11.86,13.55 11.40,13.24 10.94,13.55 11.10,13.02 10.66,12.68 11.21,12.66" fill="#fff"></polygon><polygon points="15.20,12.14 15.39,12.66 15.94,12.68 15.50,13.02 15.66,13.55 15.20,13.24 14.74,13.55 14.90,13.02 14.46,12.68 15.01,12.66" fill="#fff"></polygon><polygon points="19.00,12.14 19.19,12.66 19.74,12.68 19.30,13.02 19.46,13.55 19.00,13.24 18.54,13.55 18.70,13.02 18.26,12.68 18.81,12.66" fill="#fff"></polygon><polygon points="1.90,13.76 2.09,14.28 2.64,14.30 2.20,14.64 2.36,15.17 1.90,14.86 1.44,15.17 1.60,14.64 1.16,14.30 1.71,14.28" fill="#fff"></polygon><polygon points="5.70,13.76 5.89,14.28 6.44,14.30 6.00,14.64 6.16,15.17 5.70,14.86 5.24,15.17 5.40,14.64 4.96,14.30 5.51,14.28" fill="#fff"></polygon><polygon points="9.50,13.76 9.69,14.28 10.24,14.30 9.80,14.64 9.96,15.17 9.50,14.86 9.04,15.17 9.20,14.64 8.76,14.30 9.31,14.28" fill="#fff"></polygon><polygon points="13.30,13.76 13.49,14.28 14.04,14.30 13.60,14.64 13.76,15.17 13.30,14.86 12.84,15.17 13.00,14.64 12.56,14.30 13.11,14.28" fill="#fff"></polygon><polygon points="17.10,13.76 17.29,14.28 17.84,14.30 17.40,14.64 17.56,15.17 17.10,14.86 16.64,15.17 16.80,14.64 16.36,14.30 16.91,14.28" fill="#fff"></polygon><polygon points="20.90,13.76 21.09,14.28 21.64,14.30 21.20,14.64 21.36,15.17 20.90,14.86 20.44,15.17 20.60,14.64 20.16,14.30 20.71,14.28" fill="#fff"></polygon></svg>